<svg xmlns="http://www.w3.org/2000/svg" xml:space="preserve" width="800" height="800">
  <path d="M673.5 310.7c-47 5.8-78.6 15.3-120.6 36.3-52 26-102 69.3-141.6 122.5a354.5 354.5 0 0 0-12.9 18.2c-2.8 4.9-4 4.8 11.9 1 15.1-3.7 29.1-8.8 41.6-15.2 11.7-6 15.5-6.6 19-3.4 7.4 6.9 4.6 14.8-7.7 22a227 227 0 0 1-52.7 20.4c-2.2.5-2.6.9-1.5 1.5 3.5 2 36.5 8.6 61.5 12.5L486 529c28.8 5 73.3 7.4 92.5 5.1 34.9-4.2 63.7-14.9 86.6-32.2 8.7-6.6 22-19.9 28.5-28.5a145.1 145.1 0 0 0 22.4-52c1.8-8 2.2-13 2.2-26.4 0-17-.8-24.2-4.3-39a144 144 0 0 0-11.6-34.3l-5.6-11.7-10.1.1c-5.6.1-11.5.4-13.1.6m50 3.2c4 7.7 9.8 24.8 13 37.6 4.6 19.4 6.1 36.4 4.6 53-1 11.4-4.8 31.9-6.6 36.6-1.2 3.1 1.1 2.8 9.5-1.3a72.7 72.7 0 0 0 33.3-36.4c5.1-12 8.1-31 7.3-45.9-.5-11.2-2.3-22.5-3.5-22.3-.3.1-3.3-1.5-6.5-3.6-12.3-8-37.5-18.6-48-20.1l-4.8-.8 1.6 3.2m-87 48c-5.2 3.2-7.4 6.8-7.4 12.3 0 6.2 2 10 6.6 12.9 10.4 6.4 23.8-2 22.1-14-1.3-10.3-12.8-16.4-21.3-11.2m-56 8.1c-4.8 1.9-6 9.2-2 12.8a7.5 7.5 0 0 0 12.6-5.6c0-3-2.8-7.2-5-7.2a9 9 0 0 1-2.2-.4c-.7-.3-2.3 0-3.5.4m233.7 4c0 10-4.2 31.6-6 30.5a19 19 0 0 1-2.6-5.4c-1-2.8-2-4.8-2.4-4.6-.4.3-1.3 2.6-2 5.2a114.8 114.8 0 0 1-29 52.2c-4.6 4.8-5.1 5.8-4.4 8 2.1 6 13.1 8.5 24.9 5.6a59.4 59.4 0 0 0 40.6-37.4c6-16 6.5-25.4 1.5-35a20.7 20.7 0 0 0-4-6.2 21 21 0 0 1-5-5.6 91 91 0 0 0-8-9.2l-3.6-3.5v5.5M398.2 393c0 1.4.2 2 .5 1.3.2-.7.2-1.9 0-2.6-.3-.6-.5 0-.5 1.3m104.6 13.5a37 37 0 0 0-21.6 21.4 45 45 0 0 0-1.2 11c0 6.6.5 8.6 3.4 14.6 9.2 19.3 29.1 26.4 47.6 17a35 35 0 0 0 15-45.7 33 33 0 0 0-30.3-19.5c-5.3-.2-9.8.3-12.9 1.2m345.8 37c-5.7 13-16.6 27-26.3 33.5-4.1 2.8-20.6 11-22.1 11-1.3 0-4.2 5.7-4.2 8.2 0 3.7 3.6 8.6 7.7 10.4a53.3 53.3 0 0 0 25.8.1 60.2 60.2 0 0 0 26.8-16.2c2.3-2.8-1.4-49.9-4.2-52.7-.3-.4-2 2.2-3.5 5.8M356.5 483c-7.3 2.4-21 10.1-20.4 11.5.2.6 4.8 1 10.9 1l10.4-.1 3.9-7.2c4.3-8 4.2-8-4.8-5.2M707 496.8c-1.9 2.6-6 7.4-9.3 10.7l-6 6-.8 8c-.5 4.4-1.4 9.4-1.9 11-.5 1.6-1.4 5.7-2 9-1.2 5.8-4.3 17-6 21l-2.8 6.5c-1 2.5-2.3 5.5-2.7 6.8l-.7 2.3 3.4-1.7c12.2-6.3 32.9-28.3 35.6-37.9 2-7 2.5-19.7 1.3-30.6-2-18.3-2.4-18.8-8-11.1m-392.7 16.7a134 134 0 0 0-46 32.6 189.7 189.7 0 0 0-38.5 56.2l-4.9 11.2 3.9.8c8.1 1.6 13 10.4 9.7 17.3-2.5 5.4-7 7.6-13.9 7-5.5-.4-5.7-.3-6.5 2.2-.4 1.5-.7 12.6-.6 24.7 0 20.7.2 22.6 2.7 32.3 6.8 25.5 17.8 45.6 30.3 55a104.7 104.7 0 0 0 38.7 18c4.5 1.1 9.7 1.6 9.7.9l-3-9.5a267.4 267.4 0 0 1-13.6-75.2c-.6-15.2 1.3-36.2 4.1-44.5a44.6 44.6 0 0 1 20-24.4c3.4-1.7 10-4.1 11.1-4.1 1 0 .2 3.8-1.5 7.4a210 210 0 0 0-4.6 11.9c-2.4 7-2.6 8-1.2 9.5a69.8 69.8 0 0 1 8.8 18.7c4.6 15 6.7 32 7.6 60.3.4 15.7 1 23.2 1.7 23.2 2 0 10-12.2 16.8-25.9a193 193 0 0 0 16.6-47.6c2.3-10.8 2.5-14.3 2.6-35.5 0-21-.1-24.6-2.2-33.7-5.4-24.3-15-39.5-32.7-52.2-6.6-4.6-15-9-20.1-10.2-4.9-1.3-5.6-2.4-2.1-3.3 10.5-2.8 27.3 2.9 37.4 12.7 2.4 2.2 4.5 3.8 4.8 3.5 1-.9-1.6-16-3.6-21.2-4.2-11.1-14.4-21.7-20.8-21.5a51 51 0 0 0-10.7 3.4m44.9 5.3c-5.1.2-8.3.7-8.3 1.4a29 29 0 0 0 3 6.3 101 101 0 0 1 5.6 12.1c3 7.9 4.4 10 4.4 6.4 0-1.4 1.2-6.5 2.6-11.5 2.9-9.8 3.5-14.7 1.9-15-.6 0-4.7 0-9.3.3m485.8 5.8a61.8 61.8 0 0 1-26.7 5.4c-8 0-9.4.2-10.3 2-2.7 5-.3 11.7 5.8 16.1 4.2 3 5.5 3.4 12.6 3.8 13 .6 19-3.4 23.7-15.8 1.9-5 2.6-14.2 1.1-14-.4 0-3.2 1.1-6.2 2.5m-183 10.1c-3.6 2.1-8.8 4.9-11.7 6.2-4.3 2-5.4 3-6.8 6.7a103.1 103.1 0 0 1-16.7 25 111.8 111.8 0 0 1-28.6 21c-.4.2 5 15.8 6 17 1.3 1.8 18.1-5.4 27.7-11.8a79.9 79.9 0 0 0 33.6-45.9c2.2-7.6 4.4-21.9 3.4-21.9-.3 0-3.4 1.7-7 3.8m108 3.8a217 217 0 0 1-16.6 7.4c-6 2.3-11 4.4-11.2 4.6-.2.2 1.2 3.9 3.1 8.1 2 4.3 4 9.5 4.7 11.5.7 2.1 1.6 3.8 2 3.8.6 0 3.4-2 22.9-16l9-6.3-3.1-6.6c-4.9-10.5-4.3-10.2-10.9-6.5m-361.5 9c-7.4 5.1-12 23.9-8.6 35.8.4 1.3.2 1.6-.8 1-.8-.4-.3.5 1 1.9 3 3.3 8 5.7 12 5.7h3.3l-.7-6.4a56 56 0 0 1 3.7-24.4l2.2-6.2-3.5-3.6c-4.7-5-6.2-5.6-8.6-3.9m377.5 13.3a581.8 581.8 0 0 0-30.8 28.1l1.5 8.6c.8 4.4 1.4 11 1.5 14.8 0 3.7.3 6.7.6 6.7a49 49 0 0 0 6.8-5.3c3.4-3 8.1-6.7 10.6-8.4 4.8-3.2 10-5 10-3.4 0 .5-3.2 6.5-7.2 13.3a184 184 0 0 0-18.4 41.2c-3.6 11.6-4 13.6-2.4 13.6 2.9 0 20.8-5.3 25.8-7.7 30-14.2 48.8-42.7 51.6-78.5l.6-6.8h-7.3c-13.5 0-23.4-4-33.3-13.2l-6.1-5.8-3.5 2.8M305 560c-5.4 2.2-10 8.5-10 13.6 0 4.5 3.6 11 7.2 13.3 6.9 4.2 16.8 1.8 20.6-5 7-12.2-5-27-17.8-21.9m243.2 10.4a63 63 0 0 0-31.8 31.7l-4.4 9.1c0 .3 3.4.7 7.5 1.1 8 .7 16.8 3.2 23.2 6.5 5.4 2.7 18.3 14.9 24 22.7 2.6 3.5 5.1 6.3 5.7 6.1 1.7-.6 3.6-9 4.2-19.2 1-16.3-2.1-35.6-7.6-46.5-3-6-10.5-14-13-14a47 47 0 0 0-7.8 2.5m176.3.3c-6 2-8 5.4-9.3 15.7-.7 6.2-.5 7.7 1.6 13 6 15 10 32 10.9 47 .4 6.6 1 10.4 1.7 10.2 1.2-.4 5.8-11.4 7.4-17.7a116.2 116.2 0 0 0-6.7-69.4 17 17 0 0 0-5.6 1.2m-234 0c-5 1.2-11.3 4.8-16.2 9.4a91.7 91.7 0 0 0-18 27.1 23.4 23.4 0 0 1-3.5 6.8c-1.3.8.5 6 2.7 8 3.6 2.9 15.4-3.2 20.5-10.6 1.6-2.4 4-8 5.4-12.6 1.3-4.6 2.9-9.6 3.4-11a67.4 67.4 0 0 1 9.6-14.8c3.2-2.6 1.5-3.7-3.9-2.4m188 33c.4.9-.2 1.3-1.7 1.3-3 0-8.8 3.6-8.8 5.5 0 .8 2.9 7.3 6.4 14.3 8 16 10.5 23.4 8.6 25.7-2.2 2.7-4 1.3-6-4.5a128.2 128.2 0 0 0-14-27l-3-3.5 1.8 4.5a209 209 0 0 1 11.8 43.6l.6 5 6.2-6c6.6-6.7 10.9-8.6 19-8.6 4.3 0 4.6-.2 4.6-2.5 0-1.4-2-6.7-4.3-11.8a325 325 0 0 0-17.8-32l-2.5-3.2c-.9-1.1-1.3-1.4-1-.8M515.9 627a64.8 64.8 0 0 0-28.9 13.4c-3.2 2.7-3.1 2.8 4.6 4.1 6.2 1 16 6 21 10.5a19 19 0 0 1 4.5 5.4c0 .6 1.4 1.9 3 2.8 1.7 1 3 2 3 2.5 0 .4-3.8.6-8.5.4-18.2-.7-35.4 3.4-54 12.9a212.5 212.5 0 0 0-67.3 53.6c-19.4 22.4-30.3 39.8-36.8 59-2 6-4 11.1-4.3 11.4-.3.3-.8 3-1 6l-.3 5.5 2.2-2.5 5.8-7a302.4 302.4 0 0 1 42.1-43.3c8.5-6.4 18.2-11.7 26-14.4 6.3-2 6.6-2.4 7.9-6.5 2.7-9 3.5-11.4 5.5-15.8 2.2-5 6.4-11 7.6-11a45 45 0 0 1 5.5 9.3 50.4 50.4 0 0 1 5.4 35.4 74.9 74.9 0 0 1-13.3 30.8L442 794h2.6c4.2 0 9.4 6.2 9.4 11.1 0 7.8-4.7 12.9-12 12.9-5.2 0-8.8-1.8-10.6-5.2l-1.5-2.8-7.2 6.3a178.3 178.3 0 0 1-56.3 34l-7.1 2.3 3 2.2a176 176 0 0 0 30.2 13.5c14.5 4.5 24.8 6 41.5 6 24.6 0 40-3.3 60-13.2a116.9 116.9 0 0 0 35.5-25.6 128.4 128.4 0 0 0 31.5-46c2.1-4.6 4.1-10.7 7.6-23 4.5-15.7 6-49.6 3-69-2.7-18-9.5-40.3-15.7-51.5-8-14.4-24-22-40.1-19m108.2 4c-4.4 1.2-7 3.4-7 5.8 0 1.2 1.6 5.5 3.6 9.5s4.7 10 6 13.3l2.3 6-2.9 1.7c-3.5 2.1-4 2.1-4 .1 0-4-12.3-28.4-13.7-27-.2.2 1 6 2.6 12.7 2.6 10.7 5 26.2 5 32.2.1 1.4 2 0 6.4-4.5 7.2-7.5 12-10 20-10.6 4.1-.3 5.7-.8 5.7-1.9a222 222 0 0 0-19.2-34.9c-1.9-2.5-2.8-3-4.8-2.4m-138 47.7c-3.2 1.2-8 6.9-9.1 10.7-1.4 5.1.9 11.3 5.7 15.6 6.8 5.9 18.5 3.3 22.6-5 5.2-10.3-1.7-22.1-12.8-22-2.7.1-5.6.4-6.4.7m215.4 1.2a10.7 10.7 0 0 0-4.3 5.3c-1.7 5.2-1.6 17 .2 20.3a185 185 0 0 1 11.8 46.3 45 45 0 0 0 1.8 10.2c1 0 4-10.9 5-18.5 3-21.3 2.2-41.3-2.5-63.3-.4-1.9-1-2.2-4.7-2.2-2.4 0-5.6.8-7.3 2m-58.2 17.5c-2 1.7-3.4 4-4.1 7.3a28.7 28.7 0 0 0 1.2 19.2 205 205 0 0 1 8.3 44.7c.3 6.8 1 12 1.4 11.8a92 92 0 0 0 8-23c3.8-16 3.8-45.6 0-58.8-1-3.7-1.1-3.7-6.5-3.7-4.3 0-6 .5-8.3 2.5" style="stroke:none;stroke-width:1;stroke-dasharray:none;stroke-linecap:butt;stroke-dashoffset:0;stroke-linejoin:miter;stroke-miterlimit:4;fill:#ea1b2b;fill-rule:evenodd;opacity:1" transform="translate(-129 -115.3)"/>
  <path d="M485.9 131.3a309.2 309.2 0 0 0-31.2 39.2c-34.7 50.4-55.2 90.4-70.5 137.6-12.6 39-17.4 73.5-13.8 99.9a99 99 0 0 1 1 9.8 118 118 0 0 1-23.4-10c-29.6-15.7-48.9-38-56.2-64.8a82 82 0 0 1 0-40c3.2-10 7.1-17.5 13.1-25a63.9 63.9 0 0 1 48.8-26c12-.8 15.2-2.4 16.7-8.4 1.2-4.7-1.1-9.9-5.6-12.2-4.2-2.2-15.7-1.4-29 2A93.4 93.4 0 0 0 268 334.2a115 115 0 0 0 31.8 65 167.4 167.4 0 0 0 70.4 41.4c5.1 1.4 9.8 3 10.5 3.3.6.3-6.3.6-15.5.6a87.6 87.6 0 0 0-75.7 34.5c-1.4 1.8-4.1 3.2-8.9 4.4-3.8 1-12 4.5-18.5 7.7-38.3 19.3-70.8 59-85.6 104.6a172.8 172.8 0 0 0 7.7 126.3 140 140 0 0 0 32 44.6 117.2 117.2 0 0 0 41.4 26.8 91 91 0 0 0 35.3 6.6c11.4 0 20-1.9 28.5-6.2l3.9-2-.6 3.9c-2.2 14-1.5 29.6 1.8 42.3a19 19 0 0 1 0 12.1l-1.4 6.3 9.7 9.6c39.7 39.3 101 52.3 157.2 33.3 54.6-18.4 95.7-64.3 110.4-123.2a173 173 0 0 0 5.3-35.7l.7-11.9 1.9 6c3 9.7 5.7 25.2 6.5 37 1 16.1-.3 46-2.7 61.4a93.8 93.8 0 0 0-1.6 14c.2.2 5.3-4.5 11.3-10.5a151.1 151.1 0 0 0 44-102.9l.5-16 3.3 10a231 231 0 0 1 10.1 78.5l-.5 21.5 5.5-6a160.2 160.2 0 0 0 30.3-52.6c6-18.4 7.5-28.4 7.5-51.6V696l6 2a101 101 0 0 0 50.5 1 116.8 116.8 0 0 0 75.4-61.1c10.2-20 14.1-37.3 13.3-59.4l-.4-13.8 4.8-9.6c20-39.2 21.9-96 4.8-144.8a224.7 224.7 0 0 0-181-150.5c-17-2.8-47.2-3-64.9-.5a316.3 316.3 0 0 0-44.7 9.2c-.5-.5 0-.8 24.6-14.7 59-33.2 132-60 188.1-68.9 10.7-1.7 13.7-2.8 16-6 4.5-6.3 1-16.2-6.3-17.5-9.1-1.7-63.3 10.9-97.2 22.6a640 640 0 0 0-253 160.2l-16 16.6-5-1a35.5 35.5 0 0 0-37 17.2c-2.5 4.6-3 6.8-3.3 14.5-.4 8-.1 9.8 2.2 15.6l2.7 6.7-3 4.7-3 4.7-2-6.8a92.6 92.6 0 0 1-3.8-34c1.5-38.2 18.4-91.3 44.5-140a583.7 583.7 0 0 1 61.3-91.5c4.6-5.4 5.9-8.7 5.1-12.6-.8-4.3-3-7.1-6.4-8.3-4.6-1.6-7.1-1.3-10.9 1.2m168.6 155.3c-45.2 5.2-83 16.8-118.7 36.5-38.7 21.3-69.4 48.7-102.3 91.4a504.4 504.4 0 0 0-47.4 75c-1.8 4.2-1.9 4.6-.3 4.1 2-.5 6-1.3 11.2-2a210.6 210.6 0 0 0 54.9-18c11.7-6 15.5-6.7 19-3.5 7.4 6.9 4.6 14.8-7.7 22a227 227 0 0 1-52.7 20.4c-2.2.5-2.6.9-1.5 1.5 3.5 2 36.5 8.6 61.5 12.5L486 529c28.8 5 73.3 7.4 92.5 5.1 34.9-4.2 63.7-14.9 86.6-32.2 8.7-6.6 22-19.9 28.5-28.5a145.1 145.1 0 0 0 22.4-52c1.8-8 2.2-13 2.2-26.4 0-9-.5-19.6-1.1-23.5-1.7-10-7-31-9.6-38a148.7 148.7 0 0 0-25.5-42.8l-4.2-4.7-10.1.1c-5.6.1-11.6.4-13.2.5m57.5 8c0 .2 2 3.5 4.4 7.3 9 13.9 15.1 29.2 20 49.6a160 160 0 0 1 4.7 53c-1 11.4-4.8 31.9-6.6 36.6-1.2 3.1 1.1 2.8 9.5-1.3a72.6 72.6 0 0 0 37.5-50.3 111 111 0 0 0 0-54.8c-1.7-7.5-2-8-7-11.7a156.2 156.2 0 0 0-34-18.9 166.6 166.6 0 0 0-28.5-9.5m91.5 53.9a184 184 0 0 1 0 40c-4.8 26.2-14.7 46-31.5 63.4-4.6 4.8-5.1 5.8-4.4 8 1.2 3.4 6.3 6.1 12.6 6.8 11.5 1.2 28.7-6 38.6-16a71.7 71.7 0 0 0 19.2-44.9c0-5.6-.6-7.2-6.4-18.4a164.9 164.9 0 0 0-27.1-39.4c-1.7-1.4-1.8-1.3-1 .5m-383 30c-3 3-3.2 6.4-.4 9.9 2.8 3.6 9 3.7 12.4.1 2.9-2.8 3-4.5 1-8.4-2.5-4.9-9-5.7-13-1.6m-5.9 12.7c-1.4 2-1.4 2.4.2 5 2.1 3.6 4.8 3.7 5.5 0 .6-2.7-1.5-7.2-3.3-7.2-.5 0-1.6 1-2.4 2.2m88.2 15.3a37 37 0 0 0-21.6 21.4 45 45 0 0 0-1.2 11c0 6.6.5 8.6 3.4 14.6 9.2 19.3 29.1 26.4 47.6 17a35 35 0 0 0 15-45.7 33 33 0 0 0-30.3-19.5c-5.3-.2-9.8.3-12.9 1.2m-.5 14.9c-2.2 2-2.8 3.2-2.8 6.6 0 8 8.2 11.6 14.4 6.4 4-3.3 4.2-8 .5-12.3-3.3-4-8-4.2-12-.7m-6 17c-3 3.2-3 6 0 9.1 3 3 5.7 3.2 8 .7 3-3.4 1.9-8.5-2.5-10.8-2.8-1.4-3-1.3-5.4 1m352 5.2c-5.6 13-16.5 27-26.2 33.4-4.1 2.8-20.6 11-22.1 11-1.3 0-4.2 5.7-4.2 8.2 0 3.7 3.6 8.6 7.7 10.4a53.3 53.3 0 0 0 25.8.1 60.2 60.2 0 0 0 26.8-16.2c2.3-2.8-1.4-49.9-4.2-52.7-.3-.4-2 2.2-3.5 5.8M351.8 476c-7 1.2-16.5 4.6-23 8.3a59 59 0 0 0-14.8 10.9c0 .3 9.8.5 21.7.5l21.6-.2 5-9 5.4-10.3c.6-1.4-8-1.5-16-.2M707 496.8c-1.9 2.6-6 7.4-9.3 10.7l-6 6-.8 8c-.5 4.4-1.4 9.4-1.9 11-.5 1.6-1.4 5.7-2 9-1.2 5.8-4.3 17-6 21l-2.8 6.5c-1 2.5-2.3 5.5-2.7 6.8l-.7 2.3 3.4-1.7c12.2-6.3 32.9-28.3 35.6-37.9 2-7 2.5-19.7 1.3-30.6-2-18.3-2.4-18.8-8-11.1m-408.6 12.7c-20.4 4.4-43.6 21.2-61.7 44.5a158 158 0 0 0-34.8 82 136.2 136.2 0 0 0 14.6 75c14.2 27.8 36.7 48.4 61.9 56.7 10.3 3.4 20.5 5.4 20.5 4l-3-9.5a267.4 267.4 0 0 1-13.6-75.2c-.6-15.2 1.3-36.2 4.1-44.5a44.6 44.6 0 0 1 20-24.4c3.4-1.7 10-4.1 11.1-4.1 1 0 .2 3.8-1.5 7.4a210 210 0 0 0-4.6 11.9c-2.4 7-2.6 8-1.2 9.5a69.8 69.8 0 0 1 8.8 18.7c4.6 15 6.7 32 7.6 60.3.4 15.7 1 23.2 1.7 23.2 2 0 10-12.2 16.8-25.9a193 193 0 0 0 16.6-47.6c2.3-10.8 2.5-14.3 2.6-35.5 0-21-.1-24.6-2.2-33.7-5.4-24.3-15-39.5-32.7-52.2-6.6-4.6-15-9-20.1-10.2-4.9-1.3-5.6-2.4-2.1-3.3 10.5-2.8 27.3 2.9 37.4 12.7 2.4 2.2 4.5 3.8 4.8 3.5.8-.8-1.4-15.3-3-20a42.8 42.8 0 0 0-16.4-21.2 64.7 64.7 0 0 0-20.7-3.5c-2.7 0-7.6.6-10.9 1.4m60.8 9.3c-5.1.2-8.3.7-8.3 1.4a29 29 0 0 0 3 6.3 101 101 0 0 1 5.6 12.1c3 7.9 4.4 10 4.4 6.4 0-1.4 1.2-6.5 2.6-11.5 2.9-9.8 3.5-14.7 1.9-15-.6 0-4.7 0-9.3.3m485.8 5.8a61.8 61.8 0 0 1-26.7 5.4c-8 0-9.4.2-10.3 2-2.7 5-.3 11.7 5.8 16.1 4.2 3 5.5 3.4 12.6 3.8 13 .6 19-3.4 23.7-15.8 1.9-5 2.6-14.2 1.1-14-.4 0-3.2 1.1-6.2 2.5m-77 8a161 161 0 0 1-25.7 8.4l-5.2 1.1 4.8 9.7a158 158 0 0 1 7.1 16c1.3 3.4 2.6 6.2 3 6.2.6 0 4.2-2.5 14.5-10l11.1-8 6.1-4.5-5.1-10.6-5.1-10.7-5.5 2.5m-106 2c-3.6 2.1-8.8 4.9-11.7 6.2-4.3 2-5.4 3-6.8 6.7a103.1 103.1 0 0 1-16.7 25 111.8 111.8 0 0 1-28.6 21c-.4.2 5 15.8 6 17 1.3 1.8 18.1-5.4 27.7-11.8a79.9 79.9 0 0 0 33.6-45.9c2.2-7.6 4.4-21.9 3.4-21.9-.3 0-3.4 1.7-7 3.8M400.6 546c-11.7 20-6.4 43.8 10 45.7l4.6.5-.6-7c-.7-7.1 1-17.8 4-25 .8-2 1.5-4.1 1.5-4.8 0-.7-3.6-4.5-8-8.4l-7.9-7.2-3.6 6.2m385.3 14.7a581.8 581.8 0 0 0-30.8 28.1l1.5 8.6c.8 4.4 1.4 11 1.5 14.8 0 3.7.3 6.7.6 6.7a49 49 0 0 0 6.8-5.3c3.4-3 8.1-6.7 10.6-8.4 4.8-3.2 10-5 10-3.4 0 .5-3.2 6.5-7.2 13.3a184 184 0 0 0-18.4 41.2c-3.6 11.6-4 13.6-2.4 13.6 2.9 0 20.8-5.3 25.8-7.7 30-14.2 48.8-42.7 51.6-78.5l.6-6.8h-7.3c-13.5 0-23.4-4-33.3-13.2l-6.1-5.8-3.5 2.8m-304 4.7a46.3 46.3 0 0 0-23.6 24c-6.3 12.8-8 24.2-4.2 30.3 2.1 3.5 2.8 3.7 8 2.2 9.2-2.6 15.7-10.4 19.4-23.1 3.2-11 3.9-12.7 7.3-18 3.9-6.2 8-10.9 9.4-10.9 2 0-1.3-3.2-4.8-4.7-4-1.6-6.7-1.6-11.5.2m60.5 0c-16 5-29.7 22.9-32.8 43l-.6 4 8.8.2a55 55 0 0 1 25 6.2c5.4 2.7 18.3 14.9 24 22.7 2.6 3.5 5.1 6.3 5.7 6.1 3.3-1 5.5-23.8 3.7-38-3-24.2-9.8-37.3-22.6-43.3-5.7-2.7-5.6-2.7-11.2-1m171.8 1.4c-3.6 2-7.1 7.2-7.1 10.8 0 1 2.4 6.7 5.3 12.5a148.8 148.8 0 0 1 15.4 56.4c.4 6.6 1 10.4 1.7 10.2 1.2-.4 5.8-11.4 7.4-17.7 4.6-18.5 3.4-39.8-3.5-61-2.8-8.8-3-9-6.3-11.3-3.2-2.2-8.7-2.2-13 .1m-52 36c-4.6 4.6-4.7 7-.7 16.4a183.3 183.3 0 0 1 12.3 44.4l.6 5 6.2-6c6.6-6.7 10.9-8.6 19-8.6 4.3 0 4.6-.2 4.6-2.5 0-4.5-18-39.6-22.6-44.2-.8-.8-1.4-1.8-1.4-2.3 0-1.8-6.9-5-11-5-3.2 0-4.8.6-7 2.9M397.7 617c1.7 12.2.4 39.4-2.4 48.4-.4 1.3 1.2.4 4.7-2.8a180.1 180.1 0 0 1 33.8-22.2l-2.4-6.1a40.3 40.3 0 0 1-3.2-12.8l-.5-6.8-6.6.6c-6 .5-13-.4-21.9-3-2.3-.6-2.3-.6-1.5 4.7m107 10.4a62.6 62.6 0 0 0-21.7 10.8l-5.4 4.1 8.6 1.2c10.5 1.6 20 5.7 26.2 11.4a26 26 0 0 1 4.6 5c0 .3-4-.2-8.8-1.2a85.5 85.5 0 0 0-49.4 4.8 137 137 0 0 0-50 33.2 187.8 187.8 0 0 0-55.8 98c-1 5.5-2 12.2-2 14.8v4.7l2.1-2.4 5.7-6.9a302.4 302.4 0 0 1 42.1-43.3c8.5-6.4 18.2-11.7 26-14.4 6.3-2 6.6-2.4 7.9-6.5 2.7-9 3.5-11.4 5.5-15.8 2.3-5.1 6.4-11 7.6-11 2 0 4.3 9 4.8 18.5 1.3 24.7-9.6 46.9-35.7 72.5a202.4 202.4 0 0 1-47.5 35.1l-15.5 8.7 5.2 3.8c6.7 4.8 23 12.5 33.3 15.7a123 123 0 0 0 41.5 6c24.6 0 40-3.3 60-13.2a116.9 116.9 0 0 0 35.5-25.6 128.4 128.4 0 0 0 31.5-46c2.1-4.6 4.1-10.7 7.6-23 4.5-15.7 6-49.6 3-69a234.3 234.3 0 0 0-10.1-39.1c-5.8-15.5-11.8-22.9-23-28.7-5.5-2.8-7-3-17-3.3a69 69 0 0 0-16.7 1.1m107.5-.5c-2.4 1-5.3 5.8-5.3 8.8 0 1 1.6 8 3.4 15.6a194 194 0 0 1 5.6 34.2c0 1 2.4-.9 6.3-4.8 7.2-7.5 12-10 20-10.6 4.1-.3 5.7-.8 5.7-1.9 0-3.6-17-33-22.2-38.4-3.1-3.2-4.5-3.9-7.5-3.8-2.1 0-4.8.4-6 1m83 46.8c-4.4 2-6.7 4.8-7.8 9.2-.5 2 0 3.9 2 7 9 14.2 16.8 39 19.6 61.6a45 45 0 0 0 1.8 10.3c1 0 4-10.9 5-18.5a176 176 0 0 0-1.5-58.6c-1.4-7.5-2-8.8-4.3-10.2-4.6-2.7-10-3-14.8-.8M637 691.3a20 20 0 0 0-5.4 6c-1.7 3.1-1.8 4-.7 5.7 9.2 14.8 16.4 41.3 17.8 65.7.3 6.8 1 12 1.4 11.8 1.4-.8 5.8-13.4 8.2-23a179 179 0 0 0 .4-56.7c-1.9-7.5-2.1-7.9-6.1-9.8-5.5-2.7-11.3-2.6-15.6.3" style="stroke:none;stroke-width:1;stroke-dasharray:none;stroke-linecap:butt;stroke-dashoffset:0;stroke-linejoin:miter;stroke-miterlimit:4;fill:#06182b;fill-rule:evenodd;opacity:1" transform="translate(-129 -115.3)"/>
  <path d="m482 133.8-2.5 2.7 2.8-2.4c1.5-1.4 2.7-2.6 2.7-2.8 0-.8-.8-.1-3 2.4m-8.1 10c-1.3 1.6-1.2 1.7.4.4 1-.7 1.7-1.5 1.7-1.7 0-.8-.8-.3-2.1 1.3m26 5c-1.3 1.6-1.2 1.7.4.4 1-.7 1.7-1.5 1.7-1.7 0-.8-.8-.3-2.1 1.3m-4.5 5.6-1.9 2.2 2.3-2c2-1.7 2.7-2.5 1.9-2.5-.2 0-1.2 1-2.3 2.3M462 159c-1.2 1.7-2 3-1.6 3 .2 0 1.4-1.3 2.6-3 1.2-1.7 2-3 1.6-3-.2 0-1.4 1.3-2.6 3m354 5.6c1.4 1.7 2.7 3 3 2.7.2-.2-.9-1.6-2.5-3l-2.8-2.8 2.4 3.1m-358.5-.4c.3.5 1 .6 1.5.3 1.3-.9 1.1-1.2-.6-1.2-.8 0-1.2.4-.9.9m332.2-.5c.7.3 1.6.2 2-.1.3-.3-.3-.6-1.4-.5-1.1 0-1.4.3-.6.6m-10 2c.7.3 1.6.2 2-.1.3-.3-.3-.6-1.4-.5-1.1 0-1.4.3-.6.6m39.4 6.3c0 1.4.2 2 .5 1.3.2-.7.2-1.9 0-2.6-.3-.6-.5 0-.5 1.3m-341.3 4.8c-1.3 1.5-1.2 1.6.4.3s2.1-2.1 1.3-2.1c-.2 0-1 .8-1.7 1.8m327 7.9c.6.3 1.5.2 1.8-.1.4-.3-.2-.6-1.3-.5-1.1 0-1.4.3-.6.6m-334 2c-1.2 1.6-1.1 1.7.4.4 1.7-1.3 2.2-2.1 1.4-2.1-.2 0-1 .8-1.7 1.8m322-.1c.6.3 1.5.2 1.8-.1.4-.3-.2-.6-1.3-.5-1.1 0-1.4.3-.6.6m-95.2 2.2c-.4.5.3.7 1.4.4 2.3-.6 2.6-1.3.6-1.3-.8 0-1.7.4-2 1m86.2-.3c.7.3 1.6.2 2-.1.3-.3-.3-.6-1.4-.5-1.1 0-1.4.3-.6.6m-5 1c.7.3 1.6.2 2-.1.3-.3-.3-.6-1.4-.5-1.1 0-1.4.3-.6.6M687 193c-.8.5-1 1-.5 1a6 6 0 0 0 2.5-1c.8-.5 1-1 .5-1a6 6 0 0 0-2.5 1m-231 16.2c-1.2 2.2-1.2 2.2.6.6 1-1 1.5-2 1.2-2.4-.4-.3-1.2.5-1.8 1.8m189.5 1.8c-.3.6 0 .7 1 .4 1.7-.7 2-1.4.6-1.4-.6 0-1.3.4-1.6 1m61.5-.6c0 .2.7.7 1.6 1 .8.3 1.2.2.9-.4-.6-1-2.5-1.4-2.5-.6m-4 1.6c-.8.5-1 1-.5 1a6 6 0 0 0 2.5-1c.8-.5 1-1 .5-1a6 6 0 0 0-2.5 1m-249.5 1c-.3.4-.1 1.1.3 1.4.5.3.9-.1.9-1 0-1.6-.3-1.8-1.2-.5m188 0c-.3.7 0 .8 1 .5 1.7-.7 2-1.4.6-1.4-.6 0-1.3.4-1.6 1m-191 5c-.3.4-.1 1.1.3 1.4.5.3.9-.1.9-1 0-1.6-.3-1.8-1.2-.5m173.3 3.7c-3.8 2-3.6 2.8.2.9 1.6-.9 3-1.8 3-2 0-.7-.1-.6-3.3 1m54.3.5c-.8.5-1 1-.5 1a6 6 0 0 0 2.5-1c.8-.5 1-1 .5-1a6 6 0 0 0-2.5 1m-234 7c-.6 1.1-.8 2-.6 2 .3 0 1-.9 1.6-2 .6-1.1.8-2 .6-2-.3 0-1 .9-1.6 2m220-1c-.8.5-1 1-.5 1a6 6 0 0 0 2.5-1c.8-.5 1-1 .5-1a6 6 0 0 0-2.5 1m-316.2 2.7c.7.3 1.6.2 2-.1.3-.3-.3-.6-1.4-.5-1.1 0-1.4.3-.6.6m21.8 5.6c.3 1 .9 1.5 1.2 1.2.3-.3 0-1-.7-1.8-1-1-1-.8-.5.6m274.4 1.2c-2.5 1.3-4 2.4-3.5 2.4s3-1 5.5-2.4c2.5-1.3 4-2.4 3.5-2.4s-3 1-5.5 2.4m-206.4 3.2c-.6 1.4-.5 1.5.5.6.7-.7 1-1.5.7-1.8-.3-.3-.9.2-1.2 1.2m194.4 2.8c-1.4.8-2 1.4-1.4 1.5.5 0 1.9-.7 3-1.5 2.4-1.8 1.6-1.9-1.6 0m-51.4 2.7c.3.5 1 .6 1.5.3 1.3-.9 1.1-1.2-.6-1.2-.8 0-1.2.4-.9.9M301 250.8c-1.3 1.5-1.2 1.6.4.3 1-.7 1.7-1.5 1.7-1.7 0-.8-.8-.3-2.1 1.3m65.1-.7c-.9.6-1 1-.3 1 .6 0 1.5-.4 1.8-1 .8-1.2.4-1.2-1.5 0m-18.2 2.7c.7.3 1.6.2 2-.1.3-.3-.3-.6-1.4-.5-1.1 0-1.4.3-.6.6m82.7 1.4c-.4.6-.5 1.2-.2 1.5.2.3.7-.2 1-1 .7-1.8.1-2.1-.8-.5m180 1.5c-2 1.4-2 1.5.3.4 1.2-.6 2.2-1.3 2.2-1.5 0-.8-.5-.6-2.6 1m-45.5 1.3c-1.3 1.5-1.2 1.6.4.3 1-.7 1.7-1.5 1.7-1.7 0-.8-.8-.3-2.1 1.3M329 258c-.8.5-1 1-.5 1a6 6 0 0 0 2.5-1c.8-.5 1-1 .5-1a6 6 0 0 0-2.5 1m321.8-.3c1.8.2 4.5.2 6 0s0-.4-3.3-.4-4.5.2-2.7.4m26.5 0c1 .2 2.3.2 3 0 .6-.3-.1-.5-1.8-.5-1.6 0-2.2.2-1.2.5m-47.6 1.5c-.8.5-.5.8.8.8a8 8 0 0 0 3.5-1c1.2-.7 1-.9-.8-.7-1.3 0-2.8.5-3.5.9m7-.5c.7.2 1.9.2 2.5 0 .7-.3.2-.5-1.2-.5s-2 .2-1.3.5m52.1 0c.7.3 1.6.2 2-.1.3-.3-.3-.6-1.4-.5-1.1 0-1.4.3-.6.6m-65.3 1.3c-1.3.6-1.5.9-.5 1 .8 0 2.2-.5 3-1 1.8-1.2.2-1.2-2.5 0m73.3-.3c.7.3 1.6.2 2-.1.3-.3-.3-.6-1.4-.5-1.1 0-1.4.3-.6.6m-79.8.7c0 .2.7.6 1.5 1 .8.3 1.5.1 1.5-.4 0-.6-.7-1-1.5-1s-1.5.2-1.5.4m85.8.3c.6.2 1.8.2 2.5 0 .6-.3 0-.5-1.3-.5-1.4 0-2 .2-1.3.5m-302.1 2c-.6 1.4-.5 1.5.5.6.7-.7 1-1.5.7-1.8-.3-.3-.9.2-1.2 1.2m192.6 2.4c-3 1.7-5.2 3.2-5 3.4.2.2 3-.4 6.3-1.5 3.8-1.2 5-2 3.5-2-2 0-2.2-.2-1-1 .8-.5 1.8-.6 2.4-.3.5.3.6 0 .2-.5-.9-1.5-.2-1.7-6.4 1.9m13.6-1.4c.7.3 1.6.2 2-.1.3-.3-.3-.6-1.4-.5-1.1 0-1.4.3-.6.6m111 0c.7.3 1.6.2 2-.1.3-.3-.3-.6-1.4-.5-1.1 0-1.4.3-.6.6M317 265.5c-1 1.3-1 1.4.4 1 .9-.4 1.6-1.1 1.6-1.6 0-1.3-.6-1.1-2 .6m284.8-.8c.7.3 1.6.2 2-.1.3-.3-.3-.6-1.4-.5-1.1 0-1.4.3-.6.6M745 272c.8.5 2 1 2.5 1s.3-.5-.5-1a6 6 0 0 0-2.5-1c-.5 0-.3.5.5 1m-466.5 5c-.4.7-.5 1.3-.2 1.6.2.3.7-.2 1-1 .7-1.8.1-2.1-.8-.5m255.4 1.6c-1.3 1.6-1.2 1.7.4.4 1.6-1.3 2.1-2.1 1.3-2.1-.2 0-1 .8-1.7 1.8M276.5 281c-.4.6-.5 1.2-.2 1.5.2.3.7-.2 1-1 .7-1.8.1-2.1-.8-.5m116.1.4c-1 2.6-.7 3.2.5 1.2.6-1 .9-2 .6-2.3-.2-.3-.7.2-1 1.1m137.2.3c-1.3 1.5-1.2 1.6.4.3 1-.7 1.7-1.5 1.7-1.7 0-.8-.8-.3-2.1 1.4m-4.4 3.2c-.4.6-1.1.7-1.7.4-.7-.4-.8-.2-.4.5.6 1 1.1 1 2.2 0 1.4-1.1 1.8-1.9 1-1.9-.3 0-.8.5-1.1 1m129 1.6c-38 4.4-64.2 11.3-97.1 25.9a299 299 0 0 0-104.4 78 497.4 497.4 0 0 0-65 95.4c-2.5 5.2-3.6 8.2-2.7 7.8a44 44 0 0 1 6-1.2c4.3-.7 5-1.2 7.8-5.9 8.3-13.5 32.3-43 50.5-62.3A392 392 0 0 1 553 347c45.2-22.6 87.7-34.6 130.4-36.8l12.8-.7-4.9-7a167 167 0 0 0-9.2-11.8l-4.2-4.7-10.1.1c-5.6.1-11.6.4-13.2.5m125 .3c-.3.5-.1 1.2.3 1.5.5.3.9-.1.9-1 0-1.6-.3-1.8-1.2-.5m-259.1 2.4-1.9 2.2 2.3-1.9c2-1.8 2.7-2.6 1.9-2.6-.2 0-1.2 1-2.3 2.3m-4.8 3.4c-.6 1.4-.5 1.5.5.6.7-.7 1-1.5.7-1.8-.3-.3-.9.2-1.2 1.2m-220.6.7c0 .2.8 1 1.8 1.7 1.5 1.3 1.6 1.2.3-.4s-2.1-2.1-2.1-1.3m417 1.1c0 .2 2.3 4 5 8.3 5 7.7 5.3 8 9.7 8.7a178 178 0 0 1 49.2 20.9l5.4 3.6-.6-4c-.3-2.3-1-4.7-1.7-5.4-4.2-5.1-27.2-18.2-43-24.4a175 175 0 0 0-24-7.7m-201.6 2.8-1.9 2.2 2.3-1.9c2-1.8 2.7-2.6 1.9-2.6-.2 0-1.2 1-2.3 2.3m-6 5-1.9 2.2 2.3-1.9c2-1.8 2.7-2.6 1.9-2.6-.2 0-1.2 1-2.3 2.3m298.6 1c0 .3.8 1 1.8 1.8 1.5 1.3 1.6 1.2.3-.4s-2.1-2.1-2.1-1.3m-394.4 2.1c-1 2.6-.7 3.2.5 1.2.6-1 .9-2 .6-2.3-.2-.3-.7.2-1 1.1m87.9 3c-2.2 2-3.5 3.5-3 3.5.6 0 2.5-1.6 4.4-3.5 4.3-4.4 3.6-4.4-1.4 0m-228.5-1c0 1.2.3 1.5.6.7.3-.7.2-1.6-.1-2-.3-.3-.6.3-.5 1.4m539.9-.2c0 .2.8 1 1.8 1.7 1.5 1.3 1.6 1.2.3-.4s-2.1-2.1-2.1-1.3m9.5 8.5c2.1 2.2 4 4.1 4.3 4.1.8 0-4.4-5.8-6.3-7-1.1-.7-.2.6 2 2.9M289.2 317c0 2 .2 2.7.5 1.8.2-1 .2-2.6 0-3.6-.3-1-.5-.1-.5 1.8m198.2.3-1.9 2.2 2.3-1.9c2-1.8 2.7-2.6 1.9-2.6-.2 0-1.2 1-2.3 2.3M829.5 328c2.1 2.2 4.1 4 4.4 4a18 18 0 0 0-3.4-4c-2.1-2.2-4.1-4-4.4-4a18 18 0 0 0 3.4 4m-354-.3c-.5 1.4-.4 1.5.6.6.7-.7 1-1.5.7-1.8-.3-.3-.9.2-1.2 1.2m-208.4 4.8c0 1.6.2 2.2.5 1.2.2-1 .2-2.3 0-3-.3-.6-.5.2-.5 1.8m569.8 3.8c0 .2.6 1 1.4 1.6 1.1 1 1.6.9 2.2-.1.4-.7.4-1-.1-.6-.4.4-1.4.3-2.2-.3-.7-.6-1.3-1-1.3-.6m-569 4.3c.1 1.1.4 1.4.7.6.3-.7.2-1.6-.1-2-.3-.3-.6.3-.5 1.4m573.4.3c-.3.5-.1 1.2.3 1.5.5.3.9-.1.9-1 0-1.6-.3-1.8-1.2-.5m-467.4 1.7c0 1.1.3 1.4.6.6.3-.7.2-1.6-.1-2-.3-.3-.6.3-.5 1.4m469.9 2.3c0 .6.4 1.3 1 1.6.6.3.7 0 .4-1-.7-1.7-1.4-2-1.4-.6m-471 2.7c.1 1.1.4 1.4.7.6.3-.7.2-1.6-.1-2-.3-.3-.6.3-.5 1.4m430.7 3.1c.7 3.8.8 28.8.1 39.3-.3 6.3 3.5 16.9 5 14a115 115 0 0 0 4.8-26.3l.6-8.8 3.9 3.8c2 2 5.7 6.3 8 9.5a26 26 0 0 0 4.6 5.4c.5-.6-4.4-10-9.1-17.6-3.6-5.8-17.2-23-18.2-23-.2 0 0 1.7.3 3.8m-349.8-.3c-1.2 1.3-2.7 2.3-3.3 2.2a1 1 0 0 0-1.2.8c0 1.7-1.6 3.6-2.5 3a1 1 0 0 0-1.4.3c-.3.5.1.9.9.9s3.5-2.2 6.2-4.9a23 23 0 0 0 4.2-4.8 11 11 0 0 0-2.9 2.5m-83 8c.1 1.2.4 1.5.7.7.3-.7.2-1.6-.1-2-.3-.3-.6.3-.5 1.4m66.6 1c.7.3 1.9.3 2.6 0 .6-.2 0-.4-1.3-.4-1.4 0-2 .2-1.3.5m5 .4c.7.7 1.5 1 1.8.7.3-.3-.2-.9-1.2-1.2-1.4-.6-1.5-.5-.6.5m-48.6 1.5c0 1.1.3 1.4.6.6.3-.7.2-1.6-.1-2-.3-.3-.6.3-.5 1.4m242.3.3c-5.2 3.2-7.4 6.8-7.4 12.3 0 6.2 2 10 6.6 12.9 10.4 6.4 23.8-2 22.1-14-1.3-10.3-12.8-16.4-21.3-11.2m-266.3 3.7c0 1.1.3 1.4.6.6.3-.7.2-1.6-.1-2-.3-.3-.6.3-.5 1.4m23 3c0 1.1.3 1.4.6.6.3-.7.2-1.6-.1-2-.3-.3-.6.3-.5 1.4m187.2 1.4c-4.7 1.9-5.8 9.2-2 12.8a7.5 7.5 0 0 0 12.7-5.6c0-3-2.8-7.2-5-7.2a9 9 0 0 1-2.2-.4c-.7-.3-2.3 0-3.5.4m-275.7 1.2c.3.4 1 .6 1.5.3 1.3-.9 1.1-1.2-.6-1.2-.8 0-1.2.4-.9.9m87.6 5.8c0 1.4.2 2 .5 1.3.2-.7.2-1.9 0-2.6-.3-.6-.5 0-.5 1.3m28.3 1.5a8.6 8.6 0 0 0-2.5 5c0 3.7 4.2 7.5 8.2 7.5 6.6 0 10.2-5.3 7.4-10.9-2.6-4.9-9-5.7-13.1-1.6M865 378c.6 1.1 1.3 2 1.6 2 .2 0 0-.9-.6-2s-1.3-2-1.6-2c-.2 0 0 .9.6 2m-555 .4c0 .2.8 1 1.8 1.7 1.5 1.3 1.6 1.2.3-.4s-2.1-2.1-2.1-1.3m-22 8c0 .2.8 1 1.8 1.7 1.5 1.3 1.6 1.2.3-.4s-2.1-2.1-2.1-1.3m110 3.2c.1 1.1.4 1.4.7.6.3-.7.2-1.6-.1-2-.3-.3-.6.3-.5 1.4m16.5 1.6c-1.4 2-1.4 2.4.2 5 2.1 3.6 4.8 3.7 5.5 0 .6-2.7-1.5-7.2-3.3-7.2-.5 0-1.6 1-2.4 2.2m-92.6-.7c0 .2.6.8 1.3 1.4 1 .8 1.4.7 1.4-.2 0-.8-.6-1.4-1.4-1.4-.7 0-1.3.1-1.3.2m76.2 6.5c0 1.4.2 2 .5 1.3.2-.7.2-1.9 0-2.6-.3-.6-.5 0-.5 1.3m-6.1 1.6c0 1.1.3 1.4.6.6.3-.7.2-1.6-.1-2-.3-.3-.6.3-.5 1.4m-91.1 2.9a19 19 0 0 0 3.9 3.5c.3 0-1-1.6-2.9-3.5a19 19 0 0 0-3.9-3.5c-.3 0 1 1.6 2.9 3.5m68.2.5c0 1.4.2 2 .5 1.3.2-.7.2-1.9 0-2.6-.3-.6-.5 0-.5 1.3m-32.2-.6c0 .3.9 1 2 1.6 1.1.6 2 .8 2 .6 0-.3-.9-1-2-1.6-1.1-.6-2-.8-2-.6m-26.5 8.6c1 1.1 2 2 2.3 2 .3 0-.3-.9-1.3-2s-2-2-2.3-2c-.3 0 .3.9 1.3 2m5 3.9c.6 1.1 4.5 3.5 4.5 2.8 0-.3-1.2-1.2-2.6-2.2-1.5-1-2.3-1.2-2-.6M370 417c0 .6.4 1 1 1s1-.4 1-1-.4-1-1-1a1 1 0 0 0-1 1m30 2c-.6 1.1-.8 2-.6 2 .3 0 1-.9 1.6-2 .6-1.1.8-2 .6-2-.3 0-1 .9-1.6 2m102.3 2.4c-2.2 2-2.8 3.2-2.8 6.6 0 8 8.2 11.6 14.4 6.4 4-3.3 4.2-8 .5-12.3-3.3-4-8-4.2-12-.7M332.5 425c.6 1 6.4 4.2 7 3.7.1-.2-1.5-1.3-3.7-2.5-2.1-1.2-3.7-1.7-3.3-1.2m9.8 5.3c1.1.9 2.4 1.6 3 1.6 1.2 0 .7-.5-2.4-2-2.4-1-2.4-1-.6.4m9.6 4.6c.8.5 2 1 2.5 1 .6 0 .3-.5-.5-1a6 6 0 0 0-2.5-1c-.6 0-.3.5.5 1m144.5 3.4c-3.2 3.2-3.2 6 0 9.1 2.9 3 5.6 3.2 7.8.7 3.1-3.4 2-8.5-2.4-10.8-2.8-1.4-3-1.3-5.4 1m-128.7 2.3c.7.3 1.6.2 2-.1.3-.3-.3-.6-1.4-.5-1.1 0-1.4.3-.6.6m519.3.9c0 1.1.3 1.4.6.6.3-.7.2-1.6-.1-2-.3-.3-.6.3-.5 1.4m-523.3 2c.7.4 1.6.3 2 0 .3-.3-.3-.6-1.4-.5-1.1 0-1.4.3-.6.6m13.2.3c-1.1.7-.6 1 2 1s3.1-.3 2-1c-.8-.5-1.7-1-2-1-.3 0-1.2.5-2 1m511.2 4c0 1.4.2 2 .5 1.3.2-.7.2-1.9 0-2.6-.3-.6-.5 0-.5 1.3m1 8c0 1.4.2 2 .5 1.3.2-.7.2-1.9 0-2.6-.3-.6-.5 0-.5 1.3m-579.3 3-2.4 2.1 2.8-1.7a10 10 0 0 0 2.7-2c0-.8-.8-.3-3.1 1.7m580.4 8.9c0 2.5.2 3.5.4 2.3.2-1.3.2-3.3 0-4.6-.2-1.2-.4-.2-.4 2.3m-595.4 3.8c-1.3 1.5-1.2 1.6.4.3 1-.7 1.7-1.5 1.7-1.7 0-.8-.8-.3-2.1 1.4m55.1 4.7a70.8 70.8 0 0 0-36 19c0 .2 4.5.3 10 0 7-.2 10.6-.7 11.8-1.8 3.4-3 16.8-9.6 22.7-11.2 5.3-1.5 9.4-4.4 9.5-6.8 0-1.1-10.8-.7-18 .8m-60.1 1.3c-1.3 1.5-1.2 1.6.4.3 1-.7 1.7-1.5 1.7-1.7 0-.8-.8-.3-2.1 1.4m-8 4.9c.6.3 1.5.2 1.8-.1.4-.3-.2-.6-1.3-.5-1.1 0-1.4.3-.6.6m608.5 9.3c0 2.5.2 3.5.4 2.3.2-1.3.2-3.3 0-4.6-.2-1.2-.4-.2-.4 2.3m-627.8-2c-.3.6 0 .7 1 .4 1.7-.7 2-1.4.6-1.4-.6 0-1.3.4-1.6 1M242 502.8c-1.3 1.5-1.2 1.6.3.3 1.7-1.3 2.2-2.1 1.4-2.1-.2 0-1 .8-1.7 1.8m647.2-.2c0 1.1.3 1.4.6.6.3-.7.2-1.6-.1-2-.3-.3-.6.3-.5 1.4M237 506.7c-1.3 1.6-1.2 1.7.3.4 1.7-1.3 2.2-2.1 1.4-2.1-.2 0-1 .8-1.7 1.8m61.6 2.7c-21.4 4.6-45 22.2-64 47.7-18.7 25-28.3 48-32.1 76.3-5 37.1 8.4 78.6 34 106l5.6 6-5.4-8.7c-6.8-11.1-12-23.2-15.9-37.8-3-11.2-3.1-12-3.2-33.5 0-12.1.3-23.2.7-24.7.8-2.5 1-2.6 6.5-2.1 7 .5 11.4-1.7 14-7 3.2-7-1.7-15.8-9.8-17.4l-3.9-.8 4.9-11.2c17-39 51.9-75.7 84-88.5 10-4 10.2-4.1 5.6-5-6-1-14.3-.8-21 .7m-66.6 1.3c-1.3 1.5-1.2 1.6.3.3 1-.7 1.8-1.5 1.8-1.7 0-.8-.8-.3-2.1 1.4m655.2 4.8c0 1.1.3 1.4.6.6.3-.7.2-1.6-.1-2-.3-.3-.6.3-.5 1.4M223 518.7l-3.4 3.8 3.8-3.4c3.4-3.3 4.2-4.1 3.4-4.1-.2 0-1.9 1.7-3.8 3.8m-11 12c-1.3 1.5-1.2 1.6.3.3 1.7-1.3 2.2-2.1 1.4-2.1-.2 0-1 .8-1.7 1.8m555 2.2c-5.8 2.6-18 6.5-24.8 8l-5.2 1 2.2 4c1.2 2.1 2.6 3.9 3 3.9a206 206 0 0 0 27.2-11.1c4.5-2.5 5.6-3.6 5.4-5.2-.4-2.9-2.4-3-7.8-.6m-560.1 3.6c-1.3 1.6-1.2 1.7.3.4 1.7-1.3 2.2-2.1 1.4-2.1-.2 0-1 .8-1.7 1.8m193.7 9.1c-4 6.9-6.6 15.7-6.6 22.3 0 5.6 2.5 14.1 4.6 16 1.5 1.1 1.6 1 1.1-.7-3.3-12 1.1-30.8 8.6-36l2.2-1.5-3.2-3.1-3-3.1-3.7 6.1m478-.4c-1 2.6-.7 3.2.5 1.2.6-1 .9-2 .6-2.3-.2-.3-.7.2-1 1.1M305 560.1c-5.4 2.2-10 8.5-10 13.6 0 4.5 3.6 11 7.2 13.3 6.9 4.2 16.8 1.8 20.6-5 7-12.2-5-27-17.8-21.9m566 .9c-.6 1.1-.8 2-.6 2 .3 0 1-.9 1.6-2 .6-1.1.8-2 .6-2-.3 0-1 .9-1.6 2m-683 5c-.6 1.1-.8 2-.6 2 .3 0 1-.9 1.6-2 .6-1.1.8-2 .6-2-.3 0-1 .9-1.6 2m293.7-.5c-11.8 4.4-23.1 18.6-28 35.4-1.9 6-2.2 13.1-.8 13.1.5 0 2-2.6 3.1-5.8 3-8 10.4-19.6 16.8-26.4a36 36 0 0 1 21.1-11.5c4.4-.5 5-.8 3.9-2-1.7-2-7.1-4.3-10-4.2-1.3 0-4 .7-6 1.4m60.5 0c-16.1 5-29.7 22.9-32.8 43.3-1 6.9 1 5 6.4-5.5 8.8-17.5 20.4-28.9 33.8-33.4l6.8-2.2-4-1.8c-4.7-2.2-4.7-2.2-10.2-.4m171.8 1.3c-3.7 2-7.1 7.3-7.1 11a31 31 0 0 0 3.7 9l3.8 6.7.8-7c.4-3.8 1.5-8.5 2.5-10.4 1.6-3.4 3.3-4.4 11.2-6.8 2.4-.7-4.1-4.3-8-4.3-2 0-5 .8-7 1.8m155 2.8c.1 1.1.4 1.4.7.6.3-.7.2-1.6-.1-2-.3-.3-.6.3-.5 1.4m-205.9 32a14.2 14.2 0 0 0-5.2 9c0 1 1.9 4.2 4.2 7.3 5 6.5 13 21.8 14.9 28.6 1.6 5.3 3.3 6.6 5.7 4.2 1.5-1.5 1.4-2.1-.2-7.4-1-3.2-4.7-11.5-8.2-18.5a105 105 0 0 1-6.4-14.3c0-2 5.7-5.5 9-5.5h2.5l-2.8-2.5c-3.3-3-10-3.4-13.5-1m-265.5 15.8c1.8 12 .5 38.5-2.4 48.2-.4 1.3 1.1.4 4.7-2.8a180.1 180.1 0 0 1 33.8-22.2l-2.4-6.1a40.3 40.3 0 0 1-3.2-12.5l-.5-6.6h-10a44.5 44.5 0 0 1-19.9-3.3c-.5 0-.5 2.2 0 5.3M169 624.5c0 1.1.3 1.4.6.6.3-.7.2-1.6-.1-2-.3-.3-.6.3-.5 1.4m335.5 3a67 67 0 0 0-23.1 11.9l-4 3.4h3c2 0 4.9-1.3 8.5-4a62 62 0 0 1 28.5-12.2c1.7-.2 1-.4-2-.5-2.8 0-7.6.6-10.9 1.4m107.7-.6c-2.6 1-5.3 5.9-5.3 9.4 0 1.4 1.2 3.8 2.6 5.3 3 3.2 11.1 19.6 12 24.2.8 3.6.7 3.6 4.4 1.4l2.9-1.6-2.3-6.1a164 164 0 0 0-6-13.3 36 36 0 0 1-3.6-9.6c0-2.4 4.3-5.7 7.4-5.7 2.3 0 2-1.5-.9-3.4-2.6-1.7-7.7-2-11.2-.6m-444 6c0 2 .1 2.7.4 1.8.2-1 .2-2.6 0-3.5-.3-1-.5-.2-.5 1.7m690.4.7c-.6 1.4-.5 1.5.5.6.7-.7 1-1.5.7-1.8-.3-.3-.9.2-1.2 1.2M167.3 648c0 2.5.2 3.5.4 2.3a17 17 0 0 0 0-4.5c-.2-1.3-.4-.3-.4 2.2m684.2-1c-.3.6 0 .7 1 .4 1.7-.7 2-1.4.6-1.4-.6 0-1.3.4-1.6 1m-2 3c-.3.4-.1 1.1.3 1.4.5.3.9-.1.9-1 0-1.6-.3-1.8-1.2-.5m-8.8 11.5c-3.1 3.7-4.3 5.7-3.6 6.2.8.4 1 .3.5-.4-.4-.6.7-2.1 2.4-3.4 2.3-1.7 6.8-7.9 5.7-7.8l-5 5.4M474 659c-15 3.2-31.8 11-47 21.8a253.4 253.4 0 0 0-37.9 37.6 184 184 0 0 0-35 71.6c-3.3 13.7-2.3 14.4 2.3 1.5 7.2-20.3 18.2-37.7 38.2-60.4 20.7-23.6 40-38.9 65.8-52a105.5 105.5 0 0 1 54.1-13c9.5.4 10.2-.3 3.8-3.9-9.2-5.1-29-6.5-44.3-3.2m-305.8 6c0 1.4.2 2 .5 1.3.2-.7.2-1.9 0-2.5-.3-.7-.5-.2-.5 1.2m1 9.5c0 1.6.2 2.2.5 1.2.2-1 .2-2.3 0-3-.3-.6-.5.1-.5 1.8m526.1-.6a13 13 0 0 0-7.8 9.1c-.4 2 .5 4.4 3.7 9.8l4.3 7.2.6-7.3c.3-4 1-8.2 1.7-9.4 1.7-3.1 6.3-5.3 11.2-5.3 4.7 0 5-1 1.2-3.2a16.1 16.1 0 0 0-14.9-1m132.1 1.5-2.9 3.2 3.3-3a25 25 0 0 0 3.2-3.2c0-.8-.8 0-3.6 3M486 678.6c-3.2 1.2-8 6.9-9.1 10.7-1.4 5.1.9 11.3 5.7 15.6 6.8 5.9 18.5 3.3 22.6-5 5.2-10.3-1.7-22.1-12.8-22-2.7.1-5.6.4-6.4.7m335.9 1c-1.3 1.6-1.2 1.7.4.4 1.6-1.3 2.1-2.1 1.3-2.1-.2 0-1 .8-1.7 1.8m-651.8.8c0 1.1.3 1.4.6.6.3-.7.2-1.6-.1-2-.3-.3-.6.3-.5 1.4m642.5 5.2c-.3.5.1.9.9.9s1.2-.4.9-.9c-.3-.4-.7-.8-.9-.8-.2 0-.6.4-.9.8M809 688c-.9.6-1 1-.3 1 .6 0 1.5-.5 1.8-1 .8-1.2.4-1.2-1.5 0m-171.8 3c-3.2 2-7.2 7.3-7.2 9.7 0 .6 1.8 4.2 4 8 3.8 6.5 4 6.7 4 3.5 0-6.2 2.1-12.1 5.2-14.7 2.4-2 4-2.5 8.5-2.5 5 0 5.4-.1 4.2-1.7-3.7-4.4-13.3-5.6-18.7-2.3m167.8-1c-.9.6-1 1-.3 1 .6 0 1.5-.5 1.8-1 .8-1.2.4-1.2-1.5 0m-4 2c-.9.6-1 1-.3 1 .6 0 1.5-.5 1.8-1 .8-1.2.4-1.2-1.5 0m-76.5 5c.3.5.8 1 1 1 .3 0 .5-.5.5-1s-.5-1-1-1c-.6 0-.8.5-.5 1m51.3 3.7c.7.3 1.6.2 2-.1.3-.3-.3-.6-1.4-.5-1.1 0-1.4.3-.6.6m-32 1c.6.2 1.8.2 2.5 0 .6-.3 0-.5-1.3-.5-1.4 0-2 .2-1.3.5M176 704.5a6 6 0 0 0 1 2.5c.5.8 1 1 1 .5a6 6 0 0 0-1-2.5c-.5-.8-1-1-1-.5m549.2 1.5c0 1.4.2 2 .5 1.3.2-.7.2-1.9 0-2.5-.3-.7-.5-.2-.5 1.2m.2 12.5c0 5.5.1 7.6.3 4.7.2-2.9.2-7.4 0-10-.2-2.6-.3-.2-.3 5.3M452 723.8a76 76 0 0 1-1.1 28.2c-4.3 17.9-14.6 34-34 53a202.4 202.4 0 0 1-47.5 35.2c-15.3 8.4-15.5 8.7-13.3 10.2 3.2 2.2 4.7 2 14.8-1.8a183 183 0 0 0 51.8-32.4l7.2-6.3 1.2 2.6c1.5 3.4 5.7 5.5 10.8 5.5 7.3 0 12-5 12-12.9 0-5-5.2-11.1-9.4-11.1H442l3.5-4.5c10.6-14 16-33 13.7-48.6-1-7-6-20.9-7.5-20.9-.3 0-.1 1.7.4 3.8m216.2 5.7c0 3.3.2 4.5.4 2.7.2-1.8.2-4.5 0-6s-.4 0-.4 3.3m-60.2.6c0 1 .6 3.2 1.4 5 1.8 4.3 1.8 1.6 0-3.1-.7-2-1.4-2.8-1.4-1.9m116 6.5c0 1.1.3 1.4.6.6.3-.7.2-1.6-.1-2-.3-.3-.6.3-.5 1.4M193 740c.6 1.1 1.3 2 1.6 2 .2 0 0-.9-.6-2s-1.3-2-1.6-2c-.2 0 0 .9.6 2m474.2 5.5c0 1.6.2 2.2.5 1.2.2-1 .2-2.3 0-3-.3-.6-.5.1-.5 1.8m-60 2c0 2.2.3 3 .5 1.7.2-1.2.2-3 0-4-.3-1-.5.1-.4 2.3m-409.3-.1c0 .2.8 1 1.8 1.7 1.5 1.3 1.6 1.2.3-.4s-2.1-2.1-2.1-1.3m478.6 2.9c.3 1 .9 1.5 1.2 1.2.3-.3 0-1-.7-1.8-1-1-1-.8-.5.6M202.5 753c1 1.1 2 2 2.3 2 .3 0-.3-.9-1.3-2s-2-2-2.3-2c-.3 0 .3.9 1.3 2m411.6.6c0 1.1.3 1.4.6.6.3-.7.2-1.6-.1-2-.3-.3-.6.3-.5 1.4m107 0c0 1.1.3 1.4.6.6.3-.7.2-1.6-.1-2-.3-.3-.6.3-.5 1.4m-115 4c0 1.1.3 1.4.6.6.3-.7.2-1.6-.1-2-.3-.3-.6.3-.5 1.4M207.5 759a35 35 0 0 0 4.3 4.3c1.2 1 2 2.3 1.6 3-.4.5-.2.7.4.3.6-.3 2 .6 3.1 2 1.2 1.5 2.3 2.5 2.6 2.2.2-.2-2.8-3.5-6.7-7.4-4-3.8-6.3-5.8-5.3-4.4m457.1 1.1c-.3 1.8-.4 3.4-.2 3.6.2.3.7-1 1.1-2.7.4-1.7.5-3.4.2-3.6-.2-.3-.7 1-1 2.7m14.4 4.5c0 1.1.3 1.4.6.6.3-.7.2-1.6-.1-2-.3-.3-.6.3-.5 1.4m-62.9 3.9c0 1.6.2 2.2.5 1.2.2-1 .2-2.3 0-3-.3-.6-.5.1-.5 1.8m64 4c0 1.6.2 2.2.5 1.2.2-1 .2-2.3 0-3-.3-.6-.5.1-.5 1.8M224 774.4c0 .2.8 1 1.8 1.7 1.5 1.3 1.6 1.2.3-.4s-2.1-2.1-2.1-1.3M681.4 798c0 10.2.2 14.3.3 9.3.2-5.1.2-13.5 0-18.5-.1-5.1-.3-1-.3 9.2M240 785.4c0 .3.9 1 2 1.6 1.1.6 2 .8 2 .6 0-.3-.9-1-2-1.6-1.1-.6-2-.8-2-.6m82 8.2c-1.6 1-1.8 1.3-.6 1 1.1-.4 2.3-.1 2.8.6.5.9.8.6.8-1 0-2.6.2-2.5-3-.6m329.5 4.4c-.9 1.6-1.3 3-1 3 .2 0 1.1-1.4 2-3 .9-1.6 1.3-3 1-3-.2 0-1.1 1.4-2 3m-383.7-.3c.7.3 1.6.2 2-.1.3-.3-.3-.6-1.4-.5-1.1 0-1.4.3-.6.6m9 2c.7.3 1.6.2 2-.1.3-.3-.3-.6-1.4-.5-1.1 0-1.4.3-.6.6m29 0c.7.3 1.6.2 2-.1.3-.3-.3-.6-1.4-.5-1.1 0-1.4.3-.6.6m-17 1c2.3.2 6.1.2 8.4 0 2.4-.2.5-.4-4.2-.4s-6.6.2-4.3.4m34.4 2.9c0 1.1.3 1.4.6.6.3-.7.2-1.6-.1-2-.3-.3-.6.3-.5 1.4m293.2 3.9c0 3.3.2 4.5.4 2.7.2-1.8.2-4.5 0-6s-.4 0-.4 3.3m84.2-4.5c-.3.6 0 .7 1 .4 1.7-.7 2-1.4.6-1.4-.6 0-1.3.4-1.6 1m-349.3 3c0 1.4.2 2 .5 1.3.2-.7.2-1.9 0-2.5-.3-.7-.5-.2-.5 1.2M587 817c-.7 1.4-.7 2 .2 2.6.7.4 1 .4.6 0-.4-.5-.3-1.7.3-2.7.5-1 .7-1.9.5-1.9-.3 0-1 .9-1.6 2m102 1.4c-.8 1.1-.8 1.6.2 2.2.7.4 1 .4.6-.1-.4-.4-.3-1.4.3-2.2.6-.7 1-1.3.6-1.3-.2 0-1 .6-1.6 1.4M323.2 821c0 2 .2 2.7.5 1.8.2-1 .2-2.6 0-3.5-.3-1-.5-.2-.5 1.7m292 0c0 1.4.2 2 .5 1.3.2-.7.2-1.9 0-2.5-.3-.7-.5-.2-.5 1.2m17 6.3c-.9 1-.8 1.4.1 1.4.8 0 1.4-.6 1.4-1.4 0-.7-.1-1.3-.2-1.3-.2 0-.8.6-1.4 1.3m49.9-.2c0 .5.5.7 1 .4.5-.3 1-.8 1-1 0-.3-.5-.5-1-.5s-1 .5-1 1m-358 2.6c.1 1.1.4 1.4.7.6.3-.7.2-1.6-.1-2-.3-.3-.6.3-.5 1.4m299.4 7.6c-2.8 2.9-4 4.5-3 3.5 1.2-1 2.5-1.5 2.8-1.2.4.3.5.2.2-.2s.7-2 2.2-3.5c2.2-2.3 3-2.6 4.2-1.5 1.4 1 1.4 1 .2-.5-.7-1-1.4-1.8-1.5-1.8-.1 0-2.4 2.3-5.1 5.2m-10.4-1.6c0 1.1.3 1.4.6.6.3-.7.2-1.6-.1-2-.3-.3-.6.3-.5 1.4m-40.2 4.1c-1.3 1.6-1.2 1.7.4.4 1.6-1.3 2.1-2.1 1.3-2.1-.2 0-1 .8-1.7 1.8M327.2 844c0 1.4.2 2 .5 1.3.2-.7.2-1.9 0-2.5-.3-.7-.5-.2-.5 1.2m236.7 6.7c-1.3 1.5-1.2 1.5.9.4 2.3-1.2 2.9-2.1 1.3-2.1-.5 0-1.5.7-2.2 1.7M325 853.6c0 1.1.3 1.4.6.6.3-.7.2-1.6-.1-2-.3-.3-.6.3-.5 1.4m231.3 5.6-1.9 2.1 2.8-1.8c2.8-1.8 3.3-2.5 1.9-2.5-.5 0-1.7 1-2.8 2.2M329.6 862c1 1.2 1.8 2.3 1.6 2.5 0 .2 0 .3.3.1a20 20 0 0 1 4.7 3.8 67.8 67.8 0 0 0-8-8.5c-.3 0 .3 1 1.4 2.1m215.9 6.9c-.3.5-.1 1 .4 1 .6 0 1.1-.5 1.1-1s-.2-1-.4-1c-.3 0-.8.5-1.1 1m-202.2 6.5c0 .8.4 1.2.9.9.4-.3.6-1 .3-1.5-.9-1.3-1.2-1.1-1.2.6m3.7 1.9c0 .2.8 1 1.8 1.7 1.5 1.3 1.6 1.2.3-.4s-2.1-2.1-2.1-1.3m184.9 2.4c-1.3 1.5-1.2 1.6.4.3s2.1-2.1 1.3-2.1c-.2 0-1 .8-1.7 1.8m-9.5 5.8c-1.8 1.4-1.8 1.5.4.4 1.2-.6 2.2-1.3 2.2-1.5 0-.8-.5-.6-2.6 1m-159.4 3c0 .7 8.1 4.7 8.6 4.3.2-.3-1.7-1.4-4.1-2.6-2.5-1.2-4.5-2-4.5-1.7m151.8 1c-3.8 2.1-3.6 3 .2 1 1.6-.9 3-1.8 3-2 0-.7-.1-.6-3.3 1m-141 4.6c.7.7 1.5 1 1.8.7.3-.3-.2-.9-1.2-1.2-1.4-.6-1.5-.5-.6.5m6.3 2.9c.8.5 2 1 2.5 1 .6 0 .3-.5-.5-1a6 6 0 0 0-2.5-1c-.6 0-.3.5.5 1m88.8 8.7c.7.3 1.6.2 2-.1.3-.3-.3-.6-1.4-.5-1.1 0-1.4.3-.6.6m-54 1c.6.2 1.8.2 2.4 0 .7-.3.2-.5-1.2-.5s-2 .2-1.3.5m48.1 0c.7.3 1.6.2 2-.1.3-.3-.3-.6-1.4-.5-1.1 0-1.4.3-.6.6m-39.5 1c1 .2 2.3.2 3 0 .6-.3-.2-.5-1.8-.5s-2.2.2-1.2.5m30 0c1 .2 2.5.2 3.4 0 1-.3.2-.5-1.7-.5-2 0-2.7.2-1.8.5" style="stroke:none;stroke-width:1;stroke-dasharray:none;stroke-linecap:butt;stroke-dashoffset:0;stroke-linejoin:miter;stroke-miterlimit:4;fill:#efeded;fill-rule:evenodd;opacity:1" transform="translate(-129 -115.3)"/>
</svg>
